# xmcd CD database file
#
# Track frame offsets:
#	150
#	29023
#	46026
#	65863
#	79281
#	93648
#	109113
#	127713
#	145625
#	160709
#	182253
#	201970
#
# Disc length: 2966 seconds
#
# Revision: 1
# Processed by: cddbd v1.5.2PL0 Copyright (c) Steve Scherf et al.
# Submitted via: CDex 1.51
#
DISCID=9c0b940c
DTITLE=Various Artist - Marie All Of Wa
DYEAR=1900
DGENRE=Blues
TTITLE0=Real Love - Em karaoke
TTITLE1=Straight From The Heart - Em karaoke
TTITLE2=Friend Of Mine - Em karaoke
TTITLE3=To See My Angel Cry - Em karaoke
TTITLE4=The Image Of Me - Em karaoke
TTITLE5=A Change Is Gonna Come - Em karaoke
TTITLE6=Every Time It Rains - Em karaoke
TTITLE7=Every Time - Em karaoke
TTITLE8=Coat Of many Colours - Em karaoke
TTITLE9=Tender Heart - Em karaoke
TTITLE10=Missing You - Em karaoke
TTITLE11=You Put A Move On My Heart - Em karaoke
EXTD=
EXTT0=
EXTT1=
EXTT2=
EXTT3=
EXTT4=
EXTT5=
EXTT6=
EXTT7=
EXTT8=
EXTT9=
EXTT10=
EXTT11=
PLAYORDER=
